<svg version="1.1" id="Layer_1" xmlns="http://www.w3.org/2000/svg" xmlns:xlink="http://www.w3.org/1999/xlink" x="0px" y="0px"
	 width="100%" viewBox="0 0 928 928" enable-background="new 0 0 928 928" xml:space="preserve">
<path fill="#000000" opacity="1.000000" stroke="none" 
	d="
M728.093140,882.138428 
	C728.937378,887.152100 729.540466,891.781860 730.537109,896.325317 
	C731.300537,899.806030 729.771057,900.909790 726.701538,900.976501 
	C725.035706,901.012695 723.369507,901.051819 721.703430,901.052490 
	C562.718750,901.113098 403.734070,901.170593 244.749405,901.225525 
	C238.688263,901.227600 238.540878,900.801392 239.631683,894.901794 
	C241.999100,882.097778 245.686691,869.810913 250.547409,857.649475 
	C257.413269,840.471436 253.777985,822.839966 249.691360,805.524475 
	C248.160233,799.036987 248.072952,799.187195 254.388336,796.869202 
	C268.814728,791.574158 282.871002,785.696228 294.521301,775.109436 
	C313.709503,757.672852 320.404694,735.781189 318.296570,710.620972 
	C317.847534,705.261780 317.380524,699.853516 319.003540,694.755615 
	C320.636414,689.626770 318.648315,687.772644 314.139587,686.021240 
	C294.853027,678.529053 274.932953,673.108582 255.097397,667.399109 
	C248.859818,665.603638 242.626648,663.733032 236.291565,662.356628 
	C231.853348,661.392273 230.728027,659.549927 231.913589,655.074707 
	C238.460251,630.363159 240.047348,605.107239 238.446976,579.737488 
	C236.775879,553.246582 231.673248,527.275635 224.400742,501.729492 
	C217.194992,476.417847 210.717316,450.945526 207.335892,424.766846 
	C202.922470,390.598450 204.220642,356.686554 210.945908,322.914703 
	C222.543427,264.676239 250.387283,215.348969 293.181458,174.564575 
	C329.744324,139.718857 372.428192,115.680870 422.130768,104.902374 
	C423.563385,104.591698 425.027557,103.951500 426.976257,105.253372 
	C424.176910,111.072617 421.304077,116.961945 418.507080,122.887077 
	C416.516663,127.103577 414.003143,131.205292 412.844360,135.650513 
	C411.204529,141.941269 407.169800,144.464874 401.442200,146.575348 
	C345.088501,167.340027 302.650208,204.595444 272.335419,256.143768 
	C270.229309,259.725098 270.759399,261.467163 274.095001,263.707855 
	C282.527435,269.372253 290.822296,275.263672 298.909576,281.409790 
	C302.531616,284.162415 304.480682,283.741058 306.628357,279.840088 
	C316.581512,261.761383 328.889404,245.458664 344.036285,231.380890 
	C355.080597,221.116119 367.481110,212.726852 380.561340,205.302277 
	C381.287537,204.890091 382.051666,204.559311 382.940033,205.013077 
	C383.878082,206.160187 382.875488,206.828583 382.195435,207.458542 
	C343.382690,243.410446 322.586487,288.448425 315.173981,340.247437 
	C308.280487,388.419281 315.842346,435.071045 329.901520,481.055267 
	C338.559509,509.373627 348.808563,537.249817 354.649170,566.364197 
	C363.171478,608.846497 366.529877,651.485840 355.225891,694.004761 
	C352.527161,704.155701 353.837799,714.170959 353.361176,724.242981 
	C351.567719,762.141602 334.006348,791.012878 303.295959,812.444031 
	C300.566772,814.348572 297.839294,816.416565 294.809448,817.692688 
	C289.874176,819.771301 288.365784,822.892334 289.256226,828.173889 
	C291.058899,838.866638 289.377228,849.383301 286.527191,859.745117 
	C286.092285,861.326294 285.850708,862.960571 285.208282,866.085022 
	C392.327026,866.188965 498.928314,866.193970 605.576599,865.330872 
	C512.162109,857.538269 418.747650,849.745728 324.694366,841.899902 
	C326.958984,839.065613 329.586914,839.890991 331.810638,839.888611 
	C383.638824,839.833252 435.467041,839.853027 487.295258,839.843506 
	C560.954834,839.830017 634.614380,839.801453 708.273926,839.787903 
	C715.531189,839.786560 715.489746,839.819580 716.418457,846.798889 
	C717.329407,853.645020 719.778076,860.038696 722.710999,866.212463 
	C725.081604,871.202393 727.275330,876.196655 728.093140,882.138428 
M285.530151,443.994354 
	C284.466675,441.889404 282.480255,442.188080 280.705627,442.305359 
	C274.062805,442.744293 267.391510,443.025452 260.801361,443.897766 
	C255.938644,444.541443 250.794754,443.208557 245.990967,445.714081 
	C246.160309,447.331940 246.139847,448.848022 246.495728,450.269867 
	C249.808640,463.505920 252.966553,476.786224 256.585297,489.939270 
	C268.525360,533.337524 276.961578,577.124878 272.269867,622.479187 
	C271.795959,627.060547 271.287445,631.638428 270.761414,636.529968 
	C289.617371,641.930603 308.032806,647.375366 325.994598,653.585999 
	C328.066223,650.707825 327.607025,648.126282 327.743347,645.680542 
	C329.736420,609.925781 322.890686,575.427917 312.968781,541.349548 
	C303.618927,509.235992 292.341553,477.663513 285.530151,443.994354 
M256.903076,359.721375 
	C251.562042,358.879761 246.390854,356.938843 240.413101,356.937927 
	C238.446976,379.264557 238.281067,401.229218 241.847412,423.185059 
	C242.475876,427.054138 244.234055,428.189484 247.629395,428.334930 
	C256.927277,428.733154 266.218933,429.296936 275.519318,429.607788 
	C283.196167,429.864319 283.424164,429.476898 282.570648,421.889252 
	C280.596680,404.340149 279.994598,386.742096 281.209625,369.122375 
	C281.423462,366.020996 280.302551,364.942780 277.643005,364.375793 
	C270.986481,362.956726 264.350708,361.440277 256.903076,359.721375 
M287.585388,329.230438 
	C289.850006,319.294983 293.399048,309.765045 297.018188,300.280243 
	C298.198883,297.185883 297.925446,295.589264 294.862793,293.982788 
	C284.981750,288.799866 275.250549,283.331482 265.455139,277.984863 
	C264.440826,277.431244 263.419006,276.801483 262.162384,277.220795 
	C261.921204,277.440735 261.576508,277.614105 261.453552,277.887238 
	C253.220932,296.176361 247.109406,315.136536 243.429153,334.868225 
	C242.901566,337.696838 244.106018,339.203644 246.734207,340.083435 
	C257.474396,343.678772 268.201141,347.316040 278.896759,351.041412 
	C281.871124,352.077454 283.167480,351.192200 283.717896,348.146362 
	C284.812714,342.088104 286.154907,336.074554 287.585388,329.230438 
z"/>
<path fill="#000000" opacity="1.000000" stroke="none" 
	d="
M635.759338,216.266510 
	C663.794739,255.104614 697.880066,287.066040 737.742920,312.858643 
	C741.492188,315.284546 742.813782,318.077972 742.945129,322.184296 
	C743.430542,337.356171 742.337341,352.497406 742.223938,367.655762 
	C742.203186,370.427673 740.862732,372.376770 738.841125,374.020874 
	C728.030640,382.812744 718.850647,393.085175 711.035950,404.602264 
	C709.336243,407.107239 707.073730,408.378204 703.907043,408.420715 
	C699.155029,408.484467 694.829834,409.234161 695.068665,415.731873 
	C695.150940,417.971405 692.914062,419.048767 691.092773,419.810394 
	C675.820984,426.196686 660.100891,430.961792 643.566162,432.741028 
	C640.861694,433.032074 639.742798,431.139069 638.457520,429.421326 
	C633.270325,422.488708 629.003296,414.862061 623.083252,408.489532 
	C607.441040,391.651825 588.313904,385.574890 566.015869,391.266937 
	C546.200195,396.325317 526.384705,398.147491 506.222809,393.971191 
	C505.421417,393.805145 504.615082,393.475220 503.711853,394.178650 
	C503.336548,396.799438 505.065430,398.794373 506.119843,400.947723 
	C518.777832,426.797150 538.025940,447.084167 560.143127,464.978455 
	C579.950867,481.004181 600.669678,495.939880 618.661987,514.140747 
	C655.881104,551.791199 681.265930,596.323730 696.131592,646.990723 
	C698.053162,653.539917 699.649536,660.184204 701.552979,666.739075 
	C702.441223,669.798035 701.478882,671.020142 698.370911,671.284912 
	C679.468933,672.895386 660.573059,674.578735 641.678162,676.271667 
	C617.148987,678.469421 592.625977,680.736389 568.094116,682.903442 
	C547.207336,684.748535 526.310730,686.482483 505.420380,688.287598 
	C483.541901,690.178101 461.668549,692.128418 439.787170,693.984741 
	C430.000977,694.814941 420.202789,695.508240 410.404633,696.185974 
	C409.020966,696.281616 407.428345,696.822449 405.366241,694.380432 
	C490.120209,677.774536 574.187073,661.303345 658.609070,644.762512 
	C656.264404,634.826050 652.433472,626.337891 648.634094,617.886536 
	C629.441040,575.193604 600.582092,540.176025 563.718628,511.576508 
	C546.869812,498.504791 529.727722,485.786377 514.509094,470.751617 
	C489.595490,446.139099 470.160980,418.284637 464.410828,382.880493 
	C463.318329,376.153748 461.037598,370.843323 456.924866,365.586914 
	C441.897125,346.380188 433.131470,324.781158 433.982880,300.005676 
	C434.282898,291.276581 435.035950,282.533752 436.726746,273.668762 
	C439.341400,274.429993 439.062073,276.279816 439.411316,277.766144 
	C444.112823,297.776337 451.297821,316.690216 465.061523,332.369904 
	C491.141663,362.080536 523.338623,372.961243 562.158936,363.672852 
	C596.332764,355.496185 631.056030,369.282013 650.430481,398.678406 
	C653.227722,402.922638 655.591614,404.045227 660.425171,402.388306 
	C670.381836,398.975220 670.511047,399.224518 665.547668,389.687775 
	C660.999451,380.948700 656.067627,372.472260 649.064209,365.368591 
	C647.629517,363.913300 645.781494,362.517120 645.515320,359.333923 
	C654.594666,361.571014 662.276550,365.967224 670.069763,370.135925 
	C678.003662,374.379913 684.606201,380.600433 692.619690,385.600464 
	C698.673828,375.481232 707.046387,367.829956 714.861328,359.688019 
	C716.117004,358.379852 716.566467,357.022064 716.317139,355.182739 
	C715.282715,347.551880 715.460632,339.874847 716.057129,332.232483 
	C716.260010,329.632141 715.410889,328.246674 713.304382,327.024353 
	C689.224915,313.051819 667.975220,295.410217 647.958313,276.223267 
	C629.686707,258.709259 614.716736,238.486649 600.914734,217.404053 
	C595.610168,209.301285 588.726501,202.854172 581.542297,196.681137 
	C561.642029,179.581680 540.338867,164.511734 516.996887,152.356934 
	C511.769043,149.634659 507.304688,148.299744 502.507996,152.644394 
	C501.695587,153.380234 500.597473,154.004654 498.337036,153.521912 
	C500.843018,131.551880 503.360718,109.478897 506.044495,85.949905 
	C486.487549,100.260094 469.730438,115.331589 454.947388,132.475739 
	C440.109344,149.683685 428.018494,168.751465 419.260803,189.495941 
	C417.508514,189.463837 417.256744,188.642975 417.254547,187.809494 
	C417.133484,142.079620 434.938293,104.807556 470.122375,75.715393 
	C489.254883,59.895561 510.315338,47.217468 532.895142,37.000301 
	C534.356628,36.339005 535.772644,35.174156 537.853516,36.117329 
	C538.796509,38.906086 538.058899,41.862236 537.754333,44.783970 
	C535.305237,68.275368 532.894348,91.771286 530.277588,115.244179 
	C529.776794,119.736572 531.244324,122.026825 535.332153,124.115372 
	C566.999207,140.294662 594.586914,161.748550 617.649597,188.900604 
	C624.700989,197.202347 629.711487,206.863235 635.759338,216.266510 
z"/>
<path fill="#000000" opacity="1.000000" stroke="none" 
	d="
M515.887451,698.841492 
	C555.660095,695.242798 594.970581,691.701477 634.273438,688.077820 
	C645.765076,687.018433 653.381348,693.878418 653.131165,705.563599 
	C652.892822,716.697510 651.822083,727.835876 654.420532,738.870056 
	C659.598572,760.859009 672.838379,776.533691 692.270508,787.349792 
	C699.559326,791.406860 707.079102,795.055237 715.095337,797.412537 
	C718.841675,798.514221 719.659790,800.643738 719.187134,804.086609 
	C718.440674,809.523682 717.791382,814.976929 717.251831,820.438293 
	C716.992432,823.062988 715.835999,824.414307 713.147156,824.335999 
	C712.315125,824.311768 711.481201,824.358032 710.648132,824.362061 
	C673.827759,824.541077 637.001892,825.196045 600.188599,824.766602 
	C561.199646,824.311707 522.214294,824.427307 483.227509,824.268982 
	C481.664734,824.262634 479.963837,824.614380 478.646881,822.502808 
	C536.119324,816.107666 593.485596,809.255188 652.200195,802.314697 
	C648.428040,798.015930 645.780518,795.085144 643.226990,792.074707 
	C626.382263,772.215393 618.420776,749.038513 617.657654,723.213867 
	C617.455811,716.382080 617.547058,716.464905 610.772217,716.212769 
	C564.509583,714.490845 518.272888,712.098206 471.987000,710.965942 
	C457.172577,710.603577 442.366241,709.903809 427.557770,709.318542 
	C425.968597,709.255737 424.234283,709.790161 422.813232,708.517761 
	C425.533661,706.312195 482.556244,700.385315 515.887451,698.841492 
z"/>
<path fill="#000000" opacity="1.000000" stroke="none" 
	d="
M555.891113,238.066772 
	C550.793213,229.500702 545.204651,221.711609 538.975342,214.655991 
	C540.240845,212.723663 541.439819,213.385498 542.488037,213.652924 
	C553.291931,216.409103 564.069458,219.270172 574.889587,221.960464 
	C580.958740,223.469513 585.324829,226.842911 587.926880,232.573135 
	C590.805542,238.912598 593.807434,245.196106 596.689880,251.363251 
	C595.789185,252.490372 594.881958,252.313370 594.292542,251.758698 
	C587.066040,244.957825 578.222046,244.324509 569.079468,245.316315 
	C563.002686,245.975510 558.741760,243.819565 555.891113,238.066772 
z"/>
</svg>