<svg xmlns="http://www.w3.org/2000/svg" version="1.1" viewBox="-5.0 -10.0 110.0 135.0">
 <path d="m46.188 46.906h-21.969c-1.7266 0-3.125 1.3984-3.125 3.125s1.3984 3.125 3.125 3.125h21.969c1.7266 0 3.125-1.3984 3.125-3.125s-1.3984-3.125-3.125-3.125z"/>
 <path d="m38.531 64.625h-14.312c-1.7266 0-3.125 1.3984-3.125 3.125s1.3984 3.125 3.125 3.125h14.312c1.7266 0 3.125-1.3984 3.125-3.125s-1.3984-3.125-3.125-3.125z"/>
 <path d="m59.73 29.109h-35.539c-1.7266 0-3.125 1.3984-3.125 3.125s1.3984 3.125 3.125 3.125h35.539c1.7266 0 3.125-1.3984 3.125-3.125s-1.3984-3.125-3.125-3.125z"/>
 <path d="m80.742 28.758c-1.1719-1.1719-3.2461-1.1719-4.418 0l-27.867 27.871c-0.38672 0.38281-0.60938 0.89062-0.80469 1.3867l-4.5352 16.625c-0.29688 1.082 0.011718 2.2383 0.80469 3.0312 0.59375 0.59375 1.3906 0.91406 2.2109 0.91406 0.27344 0 0.55078-0.035157 0.82031-0.10938l16.621-4.5352c0.5-0.19531 1.0039-0.41797 1.3867-0.80469l6.4414-6.4414v18.68h-58.902v-70.75h58.906v7.9062c0 1.7266 1.3984 3.125 3.125 3.125s3.125-1.3984 3.125-3.125v-11.031c0-1.7266-1.3984-3.125-3.125-3.125h-65.156c-1.7266 0-3.125 1.3984-3.125 3.125v77c0 1.7266 1.3984 3.125 3.125 3.125h65.156c1.7266 0 3.125-1.3984 3.125-3.125v-28.055l15.18-15.18c0.58594-0.58594 0.91406-1.3789 0.91406-2.207s-0.32812-1.625-0.91406-2.2109zm-28.48 36.098 4.4727 4.4766-6.1484 1.6758zm10.492 1.6523-7.668-7.6719 23.449-23.453 7.6719 7.6719z"/>
</svg>