<svg xmlns="http://www.w3.org/2000/svg" version="1.1" viewBox="-5.0 -10.0 110.0 135.0">
 <path d="m64.062 45.312c8.6172 0 15.625-7.0078 15.625-15.625s-7.0078-15.625-15.625-15.625-15.625 7.0078-15.625 15.625 7.0078 15.625 15.625 15.625zm0-25c5.1719 0 9.375 4.2031 9.375 9.375s-4.2031 9.375-9.375 9.375-9.375-4.2031-9.375-9.375 4.2031-9.375 9.375-9.375zm-34.375 29.688c7.7578 0 14.062-6.3125 14.062-14.062s-6.3047-14.062-14.062-14.062-14.062 6.3125-14.062 14.062 6.3047 14.062 14.062 14.062zm0-21.875c4.3047 0 7.8125 3.5078 7.8125 7.8125s-3.5078 7.8125-7.8125 7.8125-7.8125-3.5078-7.8125-7.8125 3.5078-7.8125 7.8125-7.8125zm40.68 20.312h-12.609c-5.8594 0-11.492 2.4062-15.562 6.5469-2.3906-1.2188-5.0234-1.8594-7.7578-1.8594h-9.5c-9.4453 0-17.125 7.6797-17.125 17.125v12.562c0 1.7266 1.3984 3.125 3.125 3.125h78.125c1.7266 0 3.125-1.3984 3.125-3.125v-12.555c0-12.031-9.7891-21.82-21.82-21.82zm-56.305 21.812c0-6 4.875-10.875 10.875-10.875h9.5c1.3828 0 2.7266 0.25781 3.9844 0.75-0.24219 0.46875-0.46875 0.94531-0.67969 1.4219-0.0625 0.14062-0.11719 0.28906-0.17969 0.42969-0.14844 0.35938-0.28125 0.71875-0.41406 1.0859-0.054688 0.14844-0.10156 0.29688-0.15625 0.44531-0.16406 0.5-0.3125 1-0.4375 1.5078v0.015625c-0.125 0.5-0.22656 1.0156-0.3125 1.5312-0.023438 0.15625-0.046876 0.3125-0.070313 0.46875-0.054687 0.38281-0.10156 0.77344-0.14062 1.1641-0.015625 0.15625-0.03125 0.3125-0.039062 0.46875-0.03125 0.52344-0.054688 1.0547-0.054688 1.5938v9.4297h-21.875zm71.875 9.4375h-43.75v-9.4297c0-0.42187 0.015625-0.85156 0.046875-1.2656 0.20312-2.5156 1-4.9141 2.3516-7.0391 0.22656-0.35156 0.46094-0.70312 0.71875-1.0391 2.9766-3.9609 7.5156-6.2266 12.453-6.2266h12.609c8.5859 0 15.57 6.9844 15.57 15.57z"/>
</svg>