<svg xmlns="http://www.w3.org/2000/svg" version="1.1" viewBox="-5.0 -10.0 110.0 135.0">
 <path d="m38.184 42.191c0.019531 0.042969 0.039062 0.09375 0.054687 0.13672 0.66797 1.1641 1.7695 2.6484 3.2812 4.4375 1.7617 2.0391 3.6406 4.1133 5.6758 6.1914 2.1133 2.0703 4.1484 3.9922 6.2227 5.75 1.8164 1.5391 3.3203 2.6133 4.5508 3.2812 0.027344 0.011719 0.058594 0.027344 0.089844 0.039063 0.80469-0.80078 2.6797-2.6484 2.6914-2.6602 1.2422-1.2383 2.4453-2.168 3.5781-2.7734 1.4375-0.85938 2.8867-1.2656 4.4453-1.2656 1.1445 0 2.3477 0.21875 3.6719 0.76172 1.0664 0.4375 2.1953 1.0586 3.4375 1.9062 0 0 13.363 9.4922 13.363 9.4922 1.5742 1.0898 2.6328 2.3867 3.3242 3.9492l0.019532 0.054688c0.55859 1.3867 0.875 2.7773 0.875 4.332 0 1.9023-0.41406 3.8594-1.3125 5.7578-0.81641 1.7266-1.8711 3.3594-3.2695 4.8984-2.3125 2.5508-4.8789 4.3828-7.7617 5.5664-2.7969 1.1602-5.8203 1.7734-9.0781 1.7734-4.5078 0-9.3203-1.0391-14.398-3.2031-4.8477-2.0664-9.7031-4.8438-14.508-8.3438-4.7656-3.4805-9.2852-7.332-13.605-11.613l-0.007812-0.011718c-4.2695-4.3125-8.125-8.8281-11.57-13.562l-0.007813-0.007813c-3.4531-4.8047-6.2266-9.6094-8.2539-14.375l-0.003906-0.003906c-2.1172-5.0273-3.1523-9.8398-3.1523-14.426 0-3.1602 0.5625-6.1719 1.6758-8.957 1.1289-2.8711 2.9062-5.5117 5.3906-7.8633 3.2539-3.1914 6.8477-4.6875 10.605-4.6875 1.6016 0 3.1992 0.35156 4.625 1.0352 1.5352 0.70703 2.8906 1.7734 3.9531 3.3008l9.3516 13.184c0.88281 1.2266 1.5156 2.3633 1.957 3.4453 0.53906 1.2695 0.8125 2.543 0.8125 3.6875 0 1.5117-0.41406 3.0312-1.2852 4.4805-0.64844 1.125-1.5625 2.3086-2.7305 3.4766zm19.516 20.184c0 0.007812-0.003907 0.011719-0.007813 0.011719 0 0 0.003906 0 0.007813-0.011719zm4.5 4.5352-0.78125 0.65625-0.96094 0.53516-1.0742 0.32422-1.0938 0.10547c-0.42969 0-0.83203-0.035156-1.2188-0.10938 0 0-0.91016-0.25781-0.98047-0.28125l-0.066406-0.027344c-0.25391-0.10938-0.47266-0.22266-0.65625-0.29688l-0.15625-0.0625-0.14844-0.078125c-1.5195-0.80469-3.4531-2.1328-5.7773-4.0977-2.1914-1.8633-4.3477-3.8906-6.6055-6.1055l-0.019532-0.023437c-2.1445-2.1875-4.125-4.3711-5.9961-6.5312l-0.007812-0.015625c-1.957-2.3086-3.3203-4.2266-4.1211-5.6953l-0.13672-0.25-0.085938-0.26953c-0.070312-0.21094-0.17969-0.41406-0.28516-0.69531l-0.0625-0.16797-0.046875-0.17578c-0.14844-0.59375-0.21484-1.1094-0.21484-1.7031l0.085937-1.0156 0.29688-1.043 0.51172-0.98438s0.61328-0.74219 0.64453-0.78516l3.0859-3.207 0.019531-0.023437c0.73828-0.73828 1.3398-1.4688 1.7617-2.2227l0.027344-0.042968c0.23828-0.39062 0.38281-0.79688 0.38281-1.2031 0-0.375-0.125-0.78516-0.31641-1.2266l-0.011719-0.023437c-0.27734-0.68359-0.69141-1.3906-1.2539-2.1797l-9.375-13.211-0.011719-0.011719c-0.37891-0.55078-0.86719-0.92578-1.4336-1.1914l-0.027344-0.007813c-0.57812-0.27734-1.2344-0.41016-1.8828-0.41016-2.2031 0-4.2461 1-6.1758 2.8945l-0.023438 0.023438c-1.7734 1.6758-3.0508 3.543-3.8594 5.5898l-0.003907 0.011719c-0.81641 2.0508-1.2227 4.2734-1.2227 6.5977 0 3.7969 0.89844 7.7773 2.6523 11.945 1.8477 4.3477 4.3945 8.7344 7.5469 13.125 3.2539 4.4648 6.8945 8.7305 10.93 12.801 4.0703 4.0352 8.3438 7.6797 12.848 10.969 4.3906 3.1992 8.8164 5.7422 13.246 7.6328 4.1992 1.7852 8.1758 2.6836 11.898 2.6836 2.3828 0 4.5938-0.43359 6.6445-1.2891l0.007812-0.003906c2.0352-0.83203 3.8242-2.1445 5.4609-3.9492 0.94531-1.043 1.6641-2.1523 2.2188-3.332 0.47266-1.0039 0.70312-2.0312 0.70312-3.0312 0-0.68359-0.15234-1.293-0.41016-1.9336-0.21875-0.45703-0.58594-0.82812-1.0898-1.1797 0 0-13.34-9.4688-13.34-9.4688-0.78906-0.53516-1.5156-0.95313-2.2148-1.2422-0.44922-0.18359-0.85938-0.28516-1.25-0.28516-0.42578 0-0.80859 0.14062-1.1992 0.37891l-0.09375 0.058594-0.09375 0.046875c-0.67969 0.35547-1.3789 0.94531-2.1289 1.6953 0 0-3.0469 3-3.0586 3.0156z" fill-rule="evenodd"/>
</svg>